PathFileType	4	(X/Y/Z)	C:\Users\86182\Documents\cortex\Trimmed_M4_H10.trc
DataRate	CameraRate	NumFrames	NumMarkers	Units	OrigDataRate	OrigDataStartFrame	OrigNumFrames
100.00	100.00	       158	2	mm	100.00	1	       901
Frame#	Time	gripper			box			
		X1	Y1	Z1	X2	Y2	Z2	

1	0.000	277.15173	150.11600	192.30075	280.95636	146.58772	57.31653	
2	0.010	277.15274	150.11610	192.30055	280.95749	146.58878	57.31438	
3	0.020	277.15488	150.11600	192.30067	280.95834	146.58949	57.31238	
4	0.030	277.15756	150.11552	192.30048	280.95892	146.58954	57.31094	
5	0.040	277.16013	150.11482	192.29977	280.95984	146.58891	57.31022	
6	0.050	277.16217	150.11417	192.29892	280.96188	146.58781	57.30991	
7	0.060	277.16364	150.11380	192.29843	280.96536	146.58653	57.30956	
8	0.070	277.16461	150.11382	192.29854	280.96979	146.58522	57.30904	
9	0.080	277.16541	150.11400	192.29922	280.97427	146.58406	57.30871	
10	0.090	277.16647	150.11395	192.30026	280.97778	146.58319	57.30906	
11	0.100	277.16821	150.11336	192.30148	280.97983	146.58267	57.31015	
12	0.110	277.17062	150.11229	192.30289	280.98032	146.58246	57.31155	
13	0.120	277.17319	150.11113	192.30437	280.97952	146.58243	57.31280	
14	0.130	277.17526	150.11017	192.30557	280.97742	146.58252	57.31368	
15	0.140	277.17667	150.10947	192.30629	280.97403	146.58281	57.31416	
16	0.150	277.17755	150.10883	192.30643	280.96954	146.58348	57.31436	
17	0.160	277.17816	150.10814	192.30611	280.96420	146.58459	57.31455	
18	0.170	277.17850	150.10747	192.30548	280.95856	146.58603	57.31499	
19	0.180	277.17847	150.10698	192.30469	280.95352	146.58740	57.31573	
20	0.190	277.17804	150.10667	192.30373	280.95013	146.58841	57.31662	
21	0.200	277.17734	150.10655	192.30278	280.94885	146.58899	57.31736	
22	0.210	277.17648	150.10672	192.30223	280.94977	146.58908	57.31765	
23	0.220	277.17551	150.10744	192.30252	280.95279	146.58850	57.31728	
24	0.230	277.17444	150.10887	192.30394	280.95746	146.58716	57.31612	
25	0.240	277.17331	150.11102	192.30652	280.96286	146.58533	57.31430	
26	0.250	277.17224	150.11363	192.30974	280.96793	146.58353	57.31212	
27	0.260	277.17114	150.11632	192.31284	280.97165	146.58224	57.30986	
28	0.270	277.17004	150.11871	192.31519	280.97348	146.58171	57.30779	
29	0.280	277.16895	150.12056	192.31647	280.97339	146.58195	57.30629	
30	0.290	277.16772	150.12193	192.31677	280.97180	146.58276	57.30581	
31	0.300	277.16626	150.12308	192.31651	280.96939	146.58389	57.30655	
32	0.310	277.16479	150.12407	192.31610	280.96701	146.58495	57.30824	
33	0.320	277.16376	150.12471	192.31581	280.96527	146.58572	57.31030	
34	0.330	277.16351	150.12483	192.31581	280.96445	146.58629	57.31224	
35	0.340	277.16397	150.12448	192.31610	280.96432	146.58679	57.31384	
36	0.350	277.16495	150.12383	192.31662	280.96445	146.58730	57.31508	
37	0.360	277.16626	150.12306	192.31743	280.96442	146.58771	57.31596	
38	0.370	277.16757	150.12250	192.31844	280.96393	146.58798	57.31644	
39	0.380	277.16846	150.12231	192.31940	280.96304	146.58818	57.31638	
40	0.390	277.16873	150.12238	192.31995	280.96201	146.58835	57.31569	
41	0.400	277.16846	150.12242	192.31985	280.96112	146.58844	57.31448	
42	0.410	277.16776	150.12231	192.31917	280.96060	146.58838	57.31301	
43	0.420	277.16678	150.12210	192.31833	280.96048	146.58810	57.31149	
44	0.430	277.16592	150.12181	192.31773	280.96051	146.58763	57.31020	
45	0.440	277.16553	150.12140	192.31749	280.96039	146.58710	57.30956	
46	0.450	277.16547	150.12096	192.31752	280.96005	146.58667	57.30988	
47	0.460	277.16556	150.12057	192.31757	280.95975	146.58636	57.31107	
48	0.470	277.16559	150.12018	192.31735	280.95996	146.58611	57.31255	
49	0.480	277.16562	150.11963	192.31673	280.96088	146.58578	57.31380	
50	0.490	277.16586	150.11877	192.31566	280.96237	146.58534	57.31454	
51	0.500	277.16675	150.11751	192.31432	280.96414	146.58487	57.31472	
52	0.510	277.16855	150.11575	192.31281	280.96588	146.58447	57.31458	
53	0.520	277.17096	150.11366	192.31122	280.96747	146.58421	57.31451	
54	0.530	277.17337	150.11165	192.30974	280.96918	146.58398	57.31469	
55	0.540	277.17532	150.11011	192.30859	280.97141	146.58368	57.31499	
56	0.550	277.17648	150.10922	192.30782	280.97440	146.58331	57.31518	
57	0.560	277.17676	150.10901	192.30739	280.97772	146.58302	57.31513	
58	0.570	277.17633	150.10938	192.30734	280.98059	146.58286	57.31486	
59	0.580	277.17548	150.11017	192.30779	280.98215	146.58286	57.31451	
60	0.590	277.17450	150.11118	192.30870	280.98166	146.58298	57.31431	
61	0.600	277.17386	150.11203	192.30992	280.97879	146.58321	57.31450	
62	0.610	277.17392	150.11243	192.31119	280.97403	146.58353	57.31516	
63	0.620	277.17487	150.11227	192.31223	280.96835	146.58380	57.31615	
64	0.630	277.17648	150.11172	192.31281	280.96286	146.58383	57.31725	
65	0.640	277.17834	150.11108	192.31270	280.95847	146.58359	57.31837	
66	0.650	277.18005	150.11057	192.31187	280.95554	146.58313	57.31939	
67	0.660	277.18143	150.11035	192.31062	280.95398	146.58273	57.32014	
68	0.670	277.18210	150.11082	192.30957	280.95343	146.58266	57.32047	
69	0.680	277.18100	150.11273	192.30954	280.95352	146.58308	57.32035	
70	0.690	277.17673	150.11702	192.31146	280.95383	146.58412	57.31982	
71	0.700	277.16766	150.12437	192.31625	280.95389	146.58585	57.31905	
72	0.710	277.15265	150.13486	192.32439	280.95334	146.58824	57.31829	
73	0.720	277.13077	150.14789	192.33592	280.95190	146.59116	57.31783	
74	0.730	277.10184	150.16226	192.35059	280.94922	146.59430	57.31781	
75	0.740	277.06714	150.17601	192.36798	280.94476	146.59718	57.31817	
76	0.750	277.02988	150.18645	192.38745	280.93756	146.59914	57.31887	
77	0.760	276.99530	150.19069	192.40800	280.92657	146.59929	57.32002	
78	0.770	276.97092	150.18614	192.42787	280.91064	146.59666	57.32182	
79	0.780	276.96695	150.17090	192.44408	280.88892	146.59052	57.32435	
80	0.790	276.99643	150.14365	192.45253	280.86133	146.58051	57.32764	
81	0.800	277.07394	150.10358	192.44897	280.82889	146.56702	57.33172	
82	0.810	277.21301	150.05043	192.43022	280.79355	146.55138	57.33694	
83	0.820	277.42181	149.98494	192.39569	280.75745	146.53557	57.34444	
84	0.830	277.69614	149.90996	192.35078	280.72263	146.52174	57.35646	
85	0.840	278.00815	149.83249	192.31207	280.69055	146.51178	57.37674	
86	0.850	278.30023	149.76437	192.30969	280.66171	146.50700	57.41133	
87	0.860	278.50565	149.71786	192.37724	280.63593	146.50790	57.46889	
88	0.870	278.58798	149.69823	192.53329	280.61301	146.51443	57.55927	
89	0.880	278.56467	149.70049	192.77074	280.59402	146.52672	57.69074	
90	0.890	278.50085	149.71205	193.05975	280.58133	146.54524	57.86768	
91	0.900	278.47256	149.71979	193.36409	280.57684	146.57022	58.09006	
92	0.910	278.51456	149.71892	193.66495	280.57846	146.60110	58.35495	
93	0.920	278.59824	149.71602	193.97235	280.57864	146.63664	58.65804	
94	0.930	278.66602	149.72200	194.30998	280.56882	146.67517	58.99422	
95	0.940	278.68619	149.74101	194.68877	280.54657	146.71466	59.35725	
96	0.950	278.67078	149.76804	195.09859	280.51776	146.75285	59.74011	
97	0.960	278.63788	149.79825	195.52663	280.49023	146.78821	60.13711	
98	0.970	278.56589	149.83656	195.97849	280.46664	146.82085	60.54594	
99	0.980	278.40430	149.89389	196.47313	280.44370	146.85190	60.96643	
100	0.990	278.13110	149.97363	197.01791	280.41818	146.88206	61.39685	
101	1.000	277.78534	150.06567	197.59535	280.39233	146.91049	61.83243	
102	1.010	277.44281	150.15375	198.17366	280.37195	146.93513	62.26836	
103	1.020	277.17331	150.22513	198.72386	280.36002	146.95410	62.70375	
104	1.030	277.02100	150.27251	199.22751	280.35440	146.96707	63.14022	
105	1.040	277.00638	150.29117	199.67590	280.35190	146.97519	63.57656	
106	1.050	277.12970	150.27899	200.06775	280.35260	146.97958	64.00743	
107	1.060	277.37231	150.23848	200.40862	280.35895	146.98039	64.42838	
108	1.070	277.69550	150.17838	200.71298	280.37100	146.97745	64.84021	
109	1.080	278.04364	150.11186	201.00354	280.38565	146.97192	65.24783	
110	1.090	278.36240	150.05103	201.30304	280.40015	146.96643	65.65539	
111	1.100	278.61185	150.00410	201.62883	280.41483	146.96281	66.06294	
112	1.110	278.76569	149.97707	201.99416	280.43140	146.96080	66.46740	
113	1.120	278.82367	149.97139	202.40170	280.45053	146.95872	66.86690	
114	1.130	278.82523	149.97975	202.83534	280.47195	146.95520	67.26399	
115	1.140	278.82193	149.99065	203.27209	280.49655	146.95001	67.66412	
116	1.150	278.82968	149.99896	203.70494	280.52621	146.94380	68.07076	
117	1.160	278.82538	150.00801	204.14484	280.56140	146.93727	68.48232	
118	1.170	278.79245	150.02113	204.60004	280.59821	146.93056	68.89482	
119	1.180	278.75122	150.03522	205.06212	280.62949	146.92361	69.30708	
120	1.190	278.73456	150.04391	205.51591	280.64911	146.91690	69.72205	
121	1.200	278.74557	150.04567	205.95805	280.65540	146.91167	70.14321	
122	1.210	278.76181	150.04445	206.39618	280.65106	146.90916	70.57040	
123	1.220	278.77310	150.04353	206.83281	280.64133	146.90985	70.99892	
124	1.230	278.77838	150.04503	207.26582	280.63275	146.91350	71.42161	
125	1.240	278.74683	150.05618	207.70503	280.63342	146.91925	71.83105	
126	1.250	278.62314	150.08800	208.17232	280.65363	146.92484	72.22112	
127	1.260	278.38058	150.14505	208.68073	280.70337	146.92699	72.58896	
128	1.270	278.05341	150.21933	209.21974	280.78543	146.92374	72.93735	
129	1.280	277.71500	150.29457	209.76265	280.88663	146.91632	73.27628	
130	1.290	277.43332	150.35561	210.28368	280.97171	146.90962	73.62540	
131	1.300	277.24835	150.39362	210.76642	280.99277	146.91045	74.01135	
132	1.310	277.17621	150.40541	211.20314	280.92719	146.92165	74.44946	
133	1.320	277.21793	150.39154	211.59438	280.80273	146.93817	74.92933	
134	1.330	277.36133	150.35551	211.94943	280.66953	146.95178	75.42703	
135	1.340	277.57675	150.30411	212.28477	280.56223	146.95743	75.92262	
136	1.350	277.82001	150.24684	212.61855	280.49475	146.95427	76.40335	
137	1.360	278.05588	150.19135	212.96146	280.46835	146.94449	76.86305	
138	1.370	278.27173	150.14021	213.31531	280.47580	146.93182	77.30349	
139	1.380	278.45740	150.09476	213.68311	280.50397	146.92001	77.73301	
140	1.390	278.60178	150.05585	214.06882	280.53827	146.91171	78.16051	
141	1.400	278.71988	150.01924	214.46417	280.56766	146.90834	78.58925	
142	1.410	278.84329	149.97844	214.85223	280.58630	146.91031	79.01675	
143	1.420	278.97470	149.93399	215.22821	280.59164	146.91743	79.44049	
144	1.430	279.08423	149.89317	215.60406	280.58270	146.92906	79.86182	
145	1.440	279.15347	149.86017	215.99031	280.56064	146.94348	80.28339	
146	1.450	279.19492	149.83218	216.38426	280.52966	146.95825	80.70450	
147	1.460	279.22043	149.80626	216.78059	280.49500	146.97084	81.12103	
148	1.470	279.21506	149.78517	217.18454	280.45996	146.97911	81.53054	
149	1.480	279.15826	149.77327	217.60661	280.42502	146.98225	81.93575	
150	1.490	279.05780	149.76965	218.04839	280.39023	146.98097	82.34216	
151	1.500	278.94971	149.76813	218.49944	280.35834	146.97629	82.75378	
152	1.510	278.86484	149.76418	218.94952	280.33362	146.96884	83.17185	
153	1.520	278.80215	149.76053	219.39919	280.31851	146.95952	83.59621	
154	1.530	278.74512	149.76300	219.85429	280.31244	146.95038	84.02579	
155	1.540	278.68903	149.77322	220.31630	280.31332	146.94412	84.45881	
156	1.550	278.63452	149.78992	220.78491	280.32001	146.94287	84.89400	
157	1.560	278.57202	149.81325	221.26230	280.33325	146.94716	85.33131	
158	1.570	278.49707	149.84248	221.74614	280.35229	146.95580	85.77111	
